<svg id="svg" version="1.1" xmlns="http://www.w3.org/2000/svg" xmlns:xlink="http://www.w3.org/1999/xlink" width="150" height="150" viewBox="0, 0, 400,400"><g id="svgg"><path id="path0" d="M0.000 200.000 L 0.000 400.000 200.000 400.000 L 400.000 400.000 400.000 200.000 L 400.000 0.000 200.000 0.000 L 0.000 0.000 0.000 200.000 M180.034 60.100 C 180.510 60.595,181.256 61.810,181.691 62.800 C 182.709 65.113,184.260 68.562,185.199 70.600 C 185.605 71.480,186.416 73.280,187.002 74.600 C 188.218 77.338,189.506 80.189,190.706 82.800 C 191.161 83.790,192.198 86.130,193.010 88.000 C 193.823 89.870,194.900 92.300,195.404 93.400 C 196.295 95.347,197.732 98.552,199.170 101.800 C 199.560 102.680,200.338 104.390,200.900 105.600 C 201.462 106.810,202.502 109.150,203.210 110.800 C 204.980 114.925,206.373 118.008,207.010 119.216 C 207.305 119.775,207.846 121.035,208.213 122.016 C 210.493 128.118,211.319 130.424,211.863 132.200 C 212.200 133.300,212.803 134.920,213.203 135.800 C 213.603 136.680,214.054 138.030,214.204 138.800 C 214.355 139.570,214.724 140.588,215.024 141.063 C 215.324 141.537,215.785 142.797,216.049 143.863 C 216.312 144.928,216.859 146.427,217.264 147.194 C 217.669 147.961,218.002 148.951,218.004 149.394 C 218.006 149.837,218.426 151.100,218.936 152.200 C 219.447 153.300,219.986 154.813,220.135 155.562 C 220.825 159.045,221.924 158.916,228.299 154.600 C 242.612 144.911,241.472 145.270,246.662 148.807 C 251.873 152.358,255.197 154.670,257.000 155.995 C 257.880 156.642,259.272 157.540,260.094 157.991 C 261.561 158.795,262.314 160.206,261.880 161.337 C 261.671 161.880,257.358 162.392,252.949 162.398 C 249.984 162.401,249.828 162.720,250.138 168.151 C 250.280 170.639,250.660 174.188,250.981 176.037 C 251.303 177.887,251.761 181.816,251.999 184.768 C 252.236 187.720,252.783 192.490,253.213 195.368 C 254.427 203.492,254.337 204.874,252.500 206.286 C 251.091 207.368,242.537 213.176,236.424 217.200 C 230.953 220.801,228.980 222.120,228.000 222.832 C 227.450 223.232,226.039 224.153,224.865 224.879 C 220.488 227.587,218.505 229.459,217.856 231.497 C 217.523 232.544,216.685 234.930,215.994 236.800 C 215.302 238.670,214.499 241.026,214.208 242.036 C 213.388 244.878,211.672 248.000,210.929 248.000 C 210.296 248.000,207.117 244.987,204.524 241.930 C 202.161 239.145,200.298 238.708,187.800 238.014 C 183.840 237.794,178.530 237.345,176.000 237.017 C 173.470 236.689,168.052 236.235,163.960 236.009 C 159.869 235.783,154.649 235.339,152.360 235.024 C 150.072 234.708,146.087 234.324,143.504 234.171 C 138.429 233.869,137.724 233.554,138.168 231.786 C 138.341 231.095,138.975 230.501,140.113 229.963 C 142.295 228.931,143.952 228.106,145.200 227.431 C 145.750 227.133,149.620 225.147,153.800 223.017 C 157.980 220.888,161.670 218.989,162.000 218.798 C 162.330 218.607,163.140 218.193,163.800 217.878 C 165.089 217.263,180.896 209.212,190.400 204.331 C 195.830 201.542,196.208 201.273,196.322 200.115 C 196.459 198.735,196.911 199.334,188.406 189.633 C 185.433 186.241,181.313 181.471,179.251 179.033 C 177.189 176.595,174.741 173.781,173.810 172.781 C 172.100 170.941,170.731 167.695,170.192 164.200 C 170.057 163.320,169.520 160.710,168.999 158.400 C 168.111 154.458,167.504 151.689,164.988 140.099 C 164.427 137.515,163.530 133.420,162.995 131.000 C 162.459 128.580,161.904 125.792,161.760 124.805 C 161.616 123.818,161.266 122.355,160.983 121.553 C 160.701 120.752,160.258 118.703,160.000 117.000 C 159.742 115.297,159.292 113.227,159.000 112.400 C 158.708 111.573,158.256 109.490,157.996 107.771 C 157.735 106.053,157.342 104.187,157.122 103.624 C 156.902 103.061,156.389 100.890,155.982 98.800 C 155.101 94.282,154.174 89.966,153.318 86.400 C 152.975 84.970,152.517 82.720,152.300 81.400 C 152.084 80.080,151.556 77.794,151.126 76.321 C 150.039 72.585,150.231 71.032,151.800 70.897 C 153.121 70.784,152.832 70.550,161.850 79.060 C 174.353 90.858,175.202 91.600,176.193 91.600 C 177.584 91.600,177.600 91.421,177.600 75.499 C 177.600 62.255,177.671 60.584,178.262 59.931 C 179.081 59.026,178.994 59.018,180.034 60.100 M155.749 79.390 C 155.430 80.220,156.306 86.433,157.031 88.487 C 157.363 89.429,157.818 91.512,158.041 93.117 C 158.265 94.721,158.715 96.791,159.041 97.717 C 159.368 98.642,159.818 100.712,160.041 102.317 C 160.265 103.921,160.715 105.991,161.041 106.917 C 161.368 107.842,161.818 109.912,162.041 111.517 C 162.265 113.121,162.715 115.191,163.041 116.117 C 163.368 117.042,163.818 119.112,164.041 120.717 C 164.265 122.321,164.715 124.391,165.041 125.317 C 165.368 126.242,165.818 128.312,166.041 129.917 C 166.265 131.521,166.715 133.591,167.041 134.517 C 167.368 135.442,167.818 137.512,168.041 139.117 C 168.265 140.721,168.713 142.787,169.038 143.708 C 169.363 144.628,169.806 146.629,170.022 148.153 C 170.238 149.677,170.751 152.111,171.161 153.562 C 171.571 155.013,172.093 157.424,172.321 158.921 C 173.144 164.325,174.605 164.901,177.339 160.900 C 178.353 159.415,180.347 156.670,181.768 154.800 C 184.891 150.691,187.425 147.305,188.883 145.294 C 189.478 144.472,190.437 143.170,191.013 142.400 C 194.051 138.339,198.816 131.863,200.400 129.642 C 201.390 128.254,202.605 126.616,203.100 126.002 C 204.710 124.003,204.360 123.114,200.532 119.487 C 194.878 114.128,187.693 107.428,182.000 102.205 C 178.486 98.982,167.393 88.568,166.213 87.385 C 160.298 81.455,156.167 78.299,155.749 79.390 M238.447 151.708 C 237.043 152.639,235.603 153.587,235.247 153.815 C 225.641 159.967,225.734 160.116,238.958 159.794 C 252.232 159.471,253.200 159.363,253.200 158.197 C 253.200 157.202,252.846 156.878,248.601 154.000 C 247.141 153.010,245.304 151.705,244.518 151.100 C 242.581 149.608,241.445 149.722,238.447 151.708 M225.376 169.525 C 225.503 169.924,225.861 171.139,226.172 172.225 C 226.482 173.311,227.301 175.730,227.991 177.600 C 228.680 179.470,229.584 181.990,230.000 183.200 C 230.416 184.410,231.320 186.930,232.009 188.800 C 232.698 190.670,233.565 193.218,233.934 194.461 C 235.016 198.104,236.478 199.182,241.679 200.175 C 243.285 200.481,245.628 201.045,246.885 201.428 C 250.229 202.446,250.521 202.093,250.197 197.431 C 249.490 187.226,249.038 185.948,245.083 182.975 C 242.417 180.972,238.461 177.840,231.597 172.300 C 227.254 168.796,224.797 167.699,225.376 169.525 M205.200 202.392 L 200.600 202.634 192.200 206.961 C 187.580 209.342,183.260 211.551,182.600 211.870 C 181.940 212.189,181.130 212.607,180.800 212.798 C 180.238 213.123,166.913 219.914,163.400 221.665 C 162.520 222.103,161.530 222.620,161.200 222.812 C 160.870 223.004,158.080 224.418,155.000 225.954 C 149.671 228.611,146.643 230.808,147.543 231.365 C 147.767 231.503,150.887 231.790,154.476 232.003 C 158.064 232.215,162.734 232.589,164.854 232.833 L 168.708 233.279 171.454 231.909 C 174.015 230.632,177.854 228.578,182.600 225.945 C 183.700 225.335,185.320 224.474,186.200 224.031 C 187.080 223.588,189.600 222.227,191.800 221.005 C 194.000 219.783,196.520 218.426,197.400 217.989 C 198.280 217.552,199.900 216.692,201.000 216.078 C 204.055 214.374,209.987 211.152,212.000 210.104 C 212.990 209.588,214.700 208.671,215.800 208.064 C 216.900 207.458,219.294 206.174,221.119 205.212 C 224.894 203.221,225.124 203.001,224.037 202.420 C 223.209 201.977,213.377 201.962,205.200 202.392 M211.834 233.911 C 209.974 234.331,206.400 237.248,206.412 238.335 C 206.445 241.376,210.058 242.907,211.286 240.400 C 213.267 236.355,213.506 233.534,211.834 233.911 " stroke="none" fill="none" fill-rule="evenodd"></path><path id="path1" d="M178.262 59.931 C 177.671 60.584,177.600 62.255,177.600 75.499 C 177.600 91.421,177.584 91.600,176.193 91.600 C 175.202 91.600,174.353 90.858,161.850 79.060 C 152.832 70.550,153.121 70.784,151.800 70.897 C 150.231 71.032,150.039 72.585,151.126 76.321 C 151.556 77.794,152.084 80.080,152.300 81.400 C 152.517 82.720,152.975 84.970,153.318 86.400 C 154.174 89.966,155.101 94.282,155.982 98.800 C 156.389 100.890,156.902 103.061,157.122 103.624 C 157.342 104.187,157.735 106.053,157.996 107.771 C 158.256 109.490,158.708 111.573,159.000 112.400 C 159.292 113.227,159.742 115.297,160.000 117.000 C 160.258 118.703,160.701 120.752,160.983 121.553 C 161.266 122.355,161.616 123.818,161.760 124.805 C 161.904 125.792,162.459 128.580,162.995 131.000 C 163.530 133.420,164.427 137.515,164.988 140.099 C 167.504 151.689,168.111 154.458,168.999 158.400 C 169.520 160.710,170.057 163.320,170.192 164.200 C 170.731 167.695,172.100 170.941,173.810 172.781 C 174.741 173.781,177.189 176.595,179.251 179.033 C 181.313 181.471,185.433 186.241,188.406 189.633 C 199.344 202.109,201.349 198.768,174.800 212.307 C 169.410 215.056,164.460 217.563,163.800 217.878 C 163.140 218.193,162.330 218.607,162.000 218.798 C 161.670 218.989,157.980 220.888,153.800 223.017 C 149.620 225.147,145.750 227.133,145.200 227.431 C 143.952 228.106,142.295 228.931,140.113 229.963 C 138.975 230.501,138.341 231.095,138.168 231.786 C 137.724 233.554,138.429 233.869,143.504 234.171 C 146.087 234.324,150.072 234.708,152.360 235.024 C 154.649 235.339,159.869 235.783,163.960 236.009 C 168.052 236.235,173.470 236.689,176.000 237.017 C 178.530 237.345,183.840 237.794,187.800 238.014 C 200.298 238.708,202.161 239.145,204.524 241.930 C 207.117 244.987,210.296 248.000,210.929 248.000 C 211.672 248.000,213.388 244.878,214.208 242.036 C 214.499 241.026,215.302 238.670,215.994 236.800 C 216.685 234.930,217.523 232.544,217.856 231.497 C 218.505 229.459,220.488 227.587,224.865 224.879 C 226.039 224.153,227.450 223.232,228.000 222.832 C 228.980 222.120,230.953 220.801,236.424 217.200 C 242.537 213.176,251.091 207.368,252.500 206.286 C 254.337 204.874,254.427 203.492,253.213 195.368 C 252.783 192.490,252.236 187.720,251.999 184.768 C 251.761 181.816,251.303 177.887,250.981 176.037 C 250.660 174.188,250.280 170.639,250.138 168.151 C 249.828 162.720,249.984 162.401,252.949 162.398 C 257.358 162.392,261.671 161.880,261.880 161.337 C 262.314 160.206,261.561 158.795,260.094 157.991 C 259.272 157.540,257.880 156.642,257.000 155.995 C 255.197 154.670,251.873 152.358,246.662 148.807 C 241.472 145.270,242.612 144.911,228.299 154.600 C 221.924 158.916,220.825 159.045,220.135 155.562 C 219.986 154.813,219.447 153.300,218.936 152.200 C 218.426 151.100,218.006 149.837,218.004 149.394 C 218.002 148.951,217.669 147.961,217.264 147.194 C 216.859 146.427,216.312 144.928,216.049 143.863 C 215.785 142.797,215.324 141.537,215.024 141.063 C 214.724 140.588,214.355 139.570,214.204 138.800 C 214.054 138.030,213.603 136.680,213.203 135.800 C 212.803 134.920,212.200 133.300,211.863 132.200 C 211.319 130.424,210.493 128.118,208.213 122.016 C 207.846 121.035,207.305 119.775,207.010 119.216 C 206.373 118.008,204.980 114.925,203.210 110.800 C 202.502 109.150,201.462 106.810,200.900 105.600 C 200.338 104.390,199.560 102.680,199.170 101.800 C 197.732 98.552,196.295 95.347,195.404 93.400 C 194.900 92.300,193.823 89.870,193.010 88.000 C 192.198 86.130,191.161 83.790,190.706 82.800 C 189.506 80.189,188.218 77.338,187.002 74.600 C 186.416 73.280,185.605 71.480,185.199 70.600 C 184.260 68.562,182.709 65.113,181.691 62.800 C 180.363 59.781,179.245 58.846,178.262 59.931 M161.116 82.685 C 163.472 84.822,165.766 86.937,166.213 87.385 C 167.393 88.568,178.486 98.982,182.000 102.205 C 187.693 107.428,194.878 114.128,200.532 119.487 C 204.360 123.114,204.710 124.003,203.100 126.002 C 202.605 126.616,201.390 128.254,200.400 129.642 C 198.816 131.863,194.051 138.339,191.013 142.400 C 190.437 143.170,189.478 144.472,188.883 145.294 C 187.425 147.305,184.891 150.691,181.768 154.800 C 180.347 156.670,178.353 159.415,177.339 160.900 C 174.605 164.901,173.144 164.325,172.321 158.921 C 172.093 157.424,171.571 155.013,171.161 153.562 C 170.751 152.111,170.238 149.677,170.022 148.153 C 169.806 146.629,169.363 144.628,169.038 143.708 C 168.713 142.787,168.265 140.721,168.041 139.117 C 167.818 137.512,167.368 135.442,167.041 134.517 C 166.715 133.591,166.265 131.521,166.041 129.917 C 165.818 128.312,165.368 126.242,165.041 125.317 C 164.715 124.391,164.265 122.321,164.041 120.717 C 163.818 119.112,163.368 117.042,163.041 116.117 C 162.715 115.191,162.265 113.121,162.041 111.517 C 161.818 109.912,161.368 107.842,161.041 106.917 C 160.715 105.991,160.265 103.921,160.041 102.317 C 159.818 100.712,159.368 98.642,159.041 97.717 C 158.715 96.791,158.265 94.721,158.041 93.117 C 157.818 91.512,157.363 89.429,157.031 88.487 C 156.306 86.433,155.430 80.220,155.749 79.390 C 156.146 78.354,156.744 78.721,161.116 82.685 M244.518 151.100 C 245.304 151.705,247.141 153.010,248.601 154.000 C 252.846 156.878,253.200 157.202,253.200 158.197 C 253.200 159.363,252.232 159.471,238.958 159.794 C 225.734 160.116,225.641 159.967,235.247 153.815 C 235.603 153.587,237.043 152.639,238.447 151.708 C 241.445 149.722,242.581 149.608,244.518 151.100 M231.597 172.300 C 238.461 177.840,242.417 180.972,245.083 182.975 C 249.038 185.948,249.490 187.226,250.197 197.431 C 250.521 202.093,250.229 202.446,246.885 201.428 C 245.628 201.045,243.285 200.481,241.679 200.175 C 236.478 199.182,235.016 198.104,233.934 194.461 C 233.565 193.218,232.698 190.670,232.009 188.800 C 231.320 186.930,230.416 184.410,230.000 183.200 C 229.584 181.990,228.680 179.470,227.991 177.600 C 227.301 175.730,226.482 173.311,226.172 172.225 C 225.861 171.139,225.503 169.924,225.376 169.525 C 224.797 167.699,227.254 168.796,231.597 172.300 M224.037 202.420 C 225.124 203.001,224.894 203.221,221.119 205.212 C 219.294 206.174,216.900 207.458,215.800 208.064 C 214.700 208.671,212.990 209.588,212.000 210.104 C 209.987 211.152,204.055 214.374,201.000 216.078 C 199.900 216.692,198.280 217.552,197.400 217.989 C 196.520 218.426,194.000 219.783,191.800 221.005 C 189.600 222.227,187.080 223.588,186.200 224.031 C 185.320 224.474,183.700 225.335,182.600 225.945 C 177.854 228.578,174.015 230.632,171.454 231.909 L 168.708 233.279 164.854 232.833 C 162.734 232.589,158.064 232.215,154.476 232.003 C 150.887 231.790,147.767 231.503,147.543 231.365 C 146.643 230.808,149.671 228.611,155.000 225.954 C 158.080 224.418,160.870 223.004,161.200 222.812 C 161.530 222.620,162.520 222.103,163.400 221.665 C 166.913 219.914,180.238 213.123,180.800 212.798 C 181.130 212.607,181.940 212.189,182.600 211.870 C 183.260 211.551,187.580 209.342,192.200 206.961 L 200.600 202.634 205.200 202.392 C 213.377 201.962,223.209 201.977,224.037 202.420 M212.647 236.681 C 211.080 242.063,209.790 243.102,207.629 240.726 C 205.729 238.637,205.963 237.568,208.734 235.677 C 212.740 232.943,213.665 233.180,212.647 236.681 " stroke="none" fill="#deb992" fill-rule="evenodd"></path></g></svg>